<svg viewBox="0 -0.5 14 13" shape-rendering="crispEdges" width="14" height="13" xmlns="http://www.w3.org/2000/svg">
  <path stroke="#000" d="M2 0h8M1 1h1m6 0h4M1 2h1m8 0h3M0 3h1m2 0h2m1 0h2m2 0h4M0 4h1m1 0h6m1 0h5M0 5h5m1 0h5m1 0h2M1 6h1m1 0h2m2 0h2m3 0h2M1 7h1m10 0h2M1 8h1m2 0h1m2 0h1m4 0h2M1 9h1m2 0h1m2 0h1m4 0h2M1 10h1m9 0h2M1 11h1m8 0h2M2 12h9"/>
  <path stroke="#363636" d="M2 1h6M2 2h8M1 3h2m2 0h1m2 0h2M1 4h1m6 0h1m2 1h1m-2 1h2m-2 1h1m-1 2h2M2 10h1m6 0h2m-9 1h8"/>
  <path stroke="#a0a0a0" d="M5 5h1M2 6h1m2 0h2m2 0h1M2 7h8m1 0h1M2 8h2m1 0h2m1 0h4M2 9h2m1 0h2m1 0h2m-7 1h6"/>
</svg>
